<svg xmlns="http://www.w3.org/2000/svg" xmlns:xlink="http://www.w3.org/1999/xlink" xmlns:lucid="lucid" width="1740" height="1268"><g transform="translate(-40 -12)" lucid:page-tab-id="0_0"><path d="M800 32l80 60-80 60-80-60z" stroke="#000" stroke-width="2" fill="#fff"/><use xlink:href="#a" transform="matrix(1,0,0,1,725,37) translate(39.55 58.6)"/><path d="M280 240h160v120H280z" stroke="#000" stroke-width="2" fill="#fff"/><use xlink:href="#b" transform="matrix(1,0,0,1,285,245) translate(5.625 58.6)"/><use xlink:href="#c" transform="matrix(1,0,0,1,285,245) translate(85.47500000000001 58.6)"/><path d="M500 240h160v120H500z" stroke="#000" stroke-width="2" fill="#fff"/><use xlink:href="#d" transform="matrix(1,0,0,1,505,245) translate(25.624999999999993 58.6)"/><use xlink:href="#e" transform="matrix(1,0,0,1,505,245) translate(74.42500000000001 58.6)"/><path d="M720 240h160v120H720z" stroke="#000" stroke-width="2" fill="#fff"/><use xlink:href="#f" transform="matrix(1,0,0,1,725,245) translate(8.099999999999994 58.6)"/><use xlink:href="#g" transform="matrix(1,0,0,1,725,245) translate(73 58.6)"/><path d="M940 240h160v120H940z" stroke="#000" stroke-width="2" fill="#fff"/><use xlink:href="#h" transform="matrix(1,0,0,1,945,245) translate(12.125 47.8)"/><use xlink:href="#i" transform="matrix(1,0,0,1,945,245) translate(90.025 47.8)"/><use xlink:href="#j" transform="matrix(1,0,0,1,945,245) translate(52.025 69.4)"/><path d="M60 240h160v120H60z" stroke="#000" stroke-width="2" fill="#fff"/><use xlink:href="#k" transform="matrix(1,0,0,1,65,245) translate(35.074999999999996 37)"/><use xlink:href="#l" transform="matrix(1,0,0,1,65,245) translate(28.525 58.6)"/><use xlink:href="#m" transform="matrix(1,0,0,1,65,245) translate(101.475 58.6)"/><use xlink:href="#n" transform="matrix(1,0,0,1,65,245) translate(31.049999999999997 80.20000000000002)"/><path d="M1160 240h160v120h-160z" stroke="#000" stroke-width="2" fill="#fff"/><use xlink:href="#h" transform="matrix(1,0,0,1,1165,245) translate(5.074999999999989 47.8)"/><use xlink:href="#o" transform="matrix(1,0,0,1,1165,245) translate(82.975 47.8)"/><use xlink:href="#n" transform="matrix(1,0,0,1,1165,245) translate(31.049999999999997 69.4)"/><path d="M674.55 197.13H581v23.63h-2v-25.63h95.55zm126.45 0h-95.55v-2H799v-41.88h2zM801 153.25h-2v-2l1 .75 1-.75zM580 235.76l-4.64-14.26h9.28z"/><path d="M580 239l-6-18.5h12zm-3.26-16.5l3.26 10.03 3.26-10.03z"/><use xlink:href="#p" transform="matrix(1,0,0,1,674.55,185.325) translate(0 14.4)"/><path d="M661 300h39.76" stroke="#000" stroke-width="2" fill="none"/><path d="M661 301h-1v-2h1zM715.76 300l-14.26 4.64v-9.28z"/><path d="M719 300l-18.5 6v-12zm-16.5 3.26l10.03-3.26-10.03-3.26z"/><path d="M441 300h39.76" stroke="#000" stroke-width="2" fill="none"/><path d="M441 301h-1v-2h1zM495.76 300l-14.26 4.64v-9.28z"/><path d="M499 300l-18.5 6v-12zm-16.5 3.26l10.03-3.26-10.03-3.26z"/><path d="M221 300h39.76" stroke="#000" stroke-width="2" fill="none"/><path d="M221 301h-1v-2h1zM275.76 300l-14.26 4.64v-9.28z"/><path d="M279 300l-18.5 6v-12zm-16.5 3.26l10.03-3.26-10.03-3.26z"/><path d="M881 300h39.76" stroke="#000" stroke-width="2" fill="none"/><path d="M881 301h-1v-2h1zM935.76 300l-14.26 4.64v-9.28z"/><path d="M939 300l-18.5 6v-12zm-16.5 3.26l10.03-3.26-10.03-3.26z"/><path d="M1101 300h39.76" stroke="#000" stroke-width="2" fill="none"/><path d="M1101 301h-1v-2h1zM1155.76 300l-14.26 4.64v-9.28z"/><path d="M1159 300l-18.5 6v-12zm-16.5 3.26l10.03-3.26-10.03-3.26zM801 239h-2v-39h-93.55v-2H801zm-126.45-39H130.33v20.76h-2V198h546.22zM801 240h-2v-1h2zM129.33 235.76l-4.63-14.26h9.27z"/><path d="M129.33 239l-6-18.5h12.02zm-3.26-16.5l3.26 10.03 3.26-10.03zM674.55 200H361v39h-2v-41h315.55zM1021 220.76h-2V200H705.45v-2H1021zM361 240h-2v-1h2zM1020 235.76l-4.64-14.26h9.28z"/><path d="M1020 239l-6-18.5h12zm-3.26-16.5l3.26 10.03 3.26-10.03zM674.55 200H581v39h-2v-41h95.55zm563.78 20.76h-2V200H705.45v-2h532.88zM581 240h-2v-1h2zM1237.33 235.76l-4.63-14.26h9.27z"/><path d="M1237.33 239l-6-18.5h12.02zm-3.26-16.5l3.26 10.03 3.26-10.03z"/><path d="M1380 240h160v120h-160z" stroke="#000" stroke-width="2" fill="#fff"/><use xlink:href="#h" transform="matrix(1,0,0,1,1385,245) translate(5.074999999999989 47.8)"/><use xlink:href="#o" transform="matrix(1,0,0,1,1385,245) translate(82.975 47.8)"/><use xlink:href="#q" transform="matrix(1,0,0,1,1385,245) translate(33.05 69.4)"/><use xlink:href="#c" transform="matrix(1,0,0,1,1385,245) translate(58.05 69.4)"/><path d="M800 239v-40h658.67v21.76" stroke="#000" stroke-width="2" fill="none"/><path d="M801 240h-2v-1h2zM1458.67 235.76l-4.64-14.26h9.27z"/><path d="M1458.67 239l-6.02-18.5h12.03zm-3.26-16.5l3.27 10.03 3.26-10.03z"/><path d="M1600 240h160v120h-160z" stroke="#000" stroke-width="2" fill="#fff"/><use xlink:href="#r" transform="matrix(1,0,0,1,1605,245) translate(1.5999999999999943 58.6)"/><use xlink:href="#g" transform="matrix(1,0,0,1,1605,245) translate(79.5 58.6)"/><path d="M674.55 200H581v39h-2v-41h95.55zm1007.78 20.76h-2V200H705.45v-2h976.88zM581 240h-2v-1h2zM1681.33 235.76l-4.63-14.26h9.27z"/><path d="M1681.33 239l-6-18.5h12.02zm-3.26-16.5l3.26 10.03 3.26-10.03z"/><path d="M60 480h160v120H60z" stroke="#000" stroke-width="2" fill="#fff"/><use xlink:href="#s" transform="matrix(1,0,0,1,65,485) translate(29.549999999999997 37)"/><use xlink:href="#m" transform="matrix(1,0,0,1,65,485) translate(100.45 37)"/><use xlink:href="#t" transform="matrix(1,0,0,1,65,485) translate(31.549999999999997 58.6)"/><use xlink:href="#m" transform="matrix(1,0,0,1,65,485) translate(98.45 58.6)"/><use xlink:href="#g" transform="matrix(1,0,0,1,65,485) translate(40.55 80.20000000000002)"/><path d="M140 361v99.76" stroke="#000" stroke-width="2" fill="none"/><path d="M141 361h-2v-1h2zM140 475.76l-4.64-14.26h9.28z"/><path d="M140 479l-6-18.5h12zm-3.26-16.5l3.26 10.03 3.26-10.03z"/><path d="M60 700h160v120H60z" stroke="#000" stroke-width="2" fill="#fff"/><use xlink:href="#u" transform="matrix(1,0,0,1,65,705) translate(18.025 47.8)"/><use xlink:href="#m" transform="matrix(1,0,0,1,65,705) translate(111.975 47.8)"/><use xlink:href="#n" transform="matrix(1,0,0,1,65,705) translate(31.049999999999997 69.4)"/><path d="M140 601v79.76" stroke="#000" stroke-width="2" fill="none"/><path d="M141 601h-2v-1h2zM140 695.76l-4.64-14.26h9.28z"/><path d="M140 699l-6-18.5h12zm-3.26-16.5l3.26 10.03 3.26-10.03z"/><path d="M280 480h160v120H280z" stroke="#000" stroke-width="2" fill="#fff"/><use xlink:href="#v" transform="matrix(1,0,0,1,285,485) translate(42.05 58.6)"/><path d="M280 700h160v120H280z" stroke="#000" stroke-width="2" fill="#fff"/><use xlink:href="#w" transform="matrix(1,0,0,1,285,705) translate(38.05 58.6)"/><path d="M280 920h160v120H280z" stroke="#000" stroke-width="2" fill="#fff"/><use xlink:href="#x" transform="matrix(1,0,0,1,285,925) translate(39.525 58.6)"/><path d="M360 361v99.76" stroke="#000" stroke-width="2" fill="none"/><path d="M361 361h-2v-1h2zM360 475.76l-4.64-14.26h9.28z"/><path d="M360 479l-6-18.5h12zm-3.26-16.5l3.26 10.03 3.26-10.03z"/><path d="M360 601v79.76" stroke="#000" stroke-width="2" fill="none"/><path d="M361 601h-2v-1h2zM360 695.76l-4.64-14.26h9.28z"/><path d="M360 699l-6-18.5h12zm-3.26-16.5l3.26 10.03 3.26-10.03z"/><path d="M360 821v79.76" stroke="#000" stroke-width="2" fill="none"/><path d="M361 821h-2v-1h2zM360 915.76l-4.64-14.26h9.28z"/><path d="M360 919l-6-18.5h12zm-3.26-16.5l3.26 10.03 3.26-10.03z"/><path d="M500 480h160v120H500z" stroke="#000" stroke-width="2" fill="#fff"/><use xlink:href="#d" transform="matrix(1,0,0,1,505,485) translate(4.125 47.8)"/><use xlink:href="#y" transform="matrix(1,0,0,1,505,485) translate(52.92500000000001 47.8)"/><use xlink:href="#z" transform="matrix(1,0,0,1,505,485) translate(116.87500000000001 47.8)"/><use xlink:href="#A" transform="matrix(1,0,0,1,505,485) translate(41.05 69.4)"/><path d="M580 361v99.76" stroke="#000" stroke-width="2" fill="none"/><path d="M581 361h-2v-1h2zM580 475.76l-4.64-14.26h9.28z"/><path d="M580 479l-6-18.5h12zm-3.26-16.5l3.26 10.03 3.26-10.03z"/><path d="M720 480h160v120H720z" stroke="#000" stroke-width="2" fill="#fff"/><use xlink:href="#B" transform="matrix(1,0,0,1,725,485) translate(7.549999999999997 58.6)"/><use xlink:href="#q" transform="matrix(1,0,0,1,725,485) translate(60.45 58.6)"/><use xlink:href="#C" transform="matrix(1,0,0,1,725,485) translate(85.45 58.6)"/><path d="M720 700h160v120H720z" stroke="#000" stroke-width="2" fill="#fff"/><use xlink:href="#D" transform="matrix(1,0,0,1,725,705) translate(20.099999999999994 58.6)"/><use xlink:href="#E" transform="matrix(1,0,0,1,725,705) translate(79.95 58.6)"/><path d="M800 361v99.76" stroke="#000" stroke-width="2" fill="none"/><path d="M801 361h-2v-1h2zM800 475.76l-4.64-14.26h9.28z"/><path d="M800 479l-6-18.5h12zm-3.26-16.5l3.26 10.03 3.26-10.03z"/><path d="M800 601v79.76" stroke="#000" stroke-width="2" fill="none"/><path d="M801 601h-2v-1h2zM800 695.76l-4.64-14.26h9.28z"/><path d="M800 699l-6-18.5h12zm-3.26-16.5l3.26 10.03 3.26-10.03z"/><path d="M940 480h160v120H940z" stroke="#000" stroke-width="2" fill="#fff"/><use xlink:href="#F" transform="matrix(1,0,0,1,945,485) translate(52.025 58.6)"/><path d="M940 700h160v120H940z" stroke="#000" stroke-width="2" fill="#fff"/><use xlink:href="#G" transform="matrix(1,0,0,1,945,705) translate(57.5 58.6)"/><path d="M940 920h160v120H940z" stroke="#000" stroke-width="2" fill="#fff"/><use xlink:href="#H" transform="matrix(1,0,0,1,945,925) translate(57.025 58.6)"/><path d="M1020 361v99.76" stroke="#000" stroke-width="2" fill="none"/><path d="M1021 361h-2v-1h2zM1020 475.76l-4.64-14.26h9.28z"/><path d="M1020 479l-6-18.5h12zm-3.26-16.5l3.26 10.03 3.26-10.03z"/><path d="M1020 601v79.76" stroke="#000" stroke-width="2" fill="none"/><path d="M1021 601h-2v-1h2zM1020 695.76l-4.64-14.26h9.28z"/><path d="M1020 699l-6-18.5h12zm-3.26-16.5l3.26 10.03 3.26-10.03z"/><path d="M1020 821v79.76" stroke="#000" stroke-width="2" fill="none"/><path d="M1021 821h-2v-1h2zM1020 915.76l-4.64-14.26h9.28z"/><path d="M1020 919l-6-18.5h12zm-3.26-16.5l3.26 10.03 3.26-10.03z"/><path d="M940 1140h160v120H940z" stroke="#000" stroke-width="2" fill="#fff"/><use xlink:href="#I" transform="matrix(1,0,0,1,945,1145) translate(4.074999999999989 58.6)"/><use xlink:href="#q" transform="matrix(1,0,0,1,945,1145) translate(61.925 58.6)"/><use xlink:href="#J" transform="matrix(1,0,0,1,945,1145) translate(86.925 58.6)"/><path d="M1020 1041v79.76" stroke="#000" stroke-width="2" fill="none"/><path d="M1021 1041h-2v-1h2zM1020 1135.76l-4.64-14.26h9.28z"/><path d="M1020 1139l-6-18.5h12zm-3.26-16.5l3.26 10.03 3.26-10.03z"/><path d="M1160 480h160v120h-160z" stroke="#000" stroke-width="2" fill="#fff"/><use xlink:href="#K" transform="matrix(1,0,0,1,1165,485) translate(13.524999999999999 47.8)"/><use xlink:href="#m" transform="matrix(1,0,0,1,1165,485) translate(116.475 47.8)"/><use xlink:href="#L" transform="matrix(1,0,0,1,1165,485) translate(44.025 69.4)"/><path d="M1380 480h160v120h-160z" stroke="#000" stroke-width="2" fill="#fff"/><g><use xlink:href="#M" transform="matrix(1,0,0,1,1385,485) translate(0.5999999999999943 58.6)"/><use xlink:href="#N" transform="matrix(1,0,0,1,1385,485) translate(67.55 58.6)"/></g><path d="M1600 480h160v120h-160z" stroke="#000" stroke-width="2" fill="#fff"/><g><use xlink:href="#O" transform="matrix(1,0,0,1,1605,485) translate(19.074999999999996 58.6)"/><use xlink:href="#P" transform="matrix(1,0,0,1,1605,485) translate(92.975 58.6)"/></g><path d="M1600 700h160v120h-160z" stroke="#000" stroke-width="2" fill="#fff"/><g><use xlink:href="#Q" transform="matrix(1,0,0,1,1605,705) translate(9.599999999999994 58.6)"/><use xlink:href="#R" transform="matrix(1,0,0,1,1605,705) translate(88.5 58.6)"/></g><path d="M1240 361v99.76" stroke="#000" stroke-width="2" fill="none"/><path d="M1241 361h-2v-1h2zM1240 475.76l-4.64-14.26h9.28z"/><path d="M1240 479l-6-18.5h12zm-3.26-16.5l3.26 10.03 3.26-10.03z"/><path d="M1460 361v99.76" stroke="#000" stroke-width="2" fill="none"/><path d="M1461 361h-2v-1h2zM1460 475.76l-4.64-14.26h9.28z"/><path d="M1460 479l-6-18.5h12zm-3.26-16.5l3.26 10.03 3.26-10.03z"/><path d="M1680 361v99.76" stroke="#000" stroke-width="2" fill="none"/><path d="M1681 361h-2v-1h2zM1680 475.76l-4.64-14.26h9.28z"/><path d="M1680 479l-6-18.5h12zm-3.26-16.5l3.26 10.03 3.26-10.03z"/><path d="M1680 601v79.76" stroke="#000" stroke-width="2" fill="none"/><path d="M1681 601h-2v-1h2zM1680 695.76l-4.64-14.26h9.28z"/><path d="M1680 699l-6-18.5h12zm-3.26-16.5l3.26 10.03 3.26-10.03z"/><path d="M1321 300h39.76" stroke="#000" stroke-width="2" fill="none"/><path d="M1321 301h-1v-2h1zM1375.76 300l-14.26 4.64v-9.28z"/><path d="M1379 300l-18.5 6v-12zm-16.5 3.26l10.03-3.26-10.03-3.26z"/><path d="M1541 300h39.76" stroke="#000" stroke-width="2" fill="none"/><path d="M1541 301h-1v-2h1zM1595.76 300l-14.26 4.64v-9.28z"/><path d="M1599 300l-18.5 6v-12zm-16.5 3.26l10.03-3.26-10.03-3.26z"/><defs><path d="M30 0v-248h187v28H63v79h144v27H63v87h162V0H30" id="S"/><path d="M24 0v-261h32V0H24" id="T"/><path d="M100-194c63 0 86 42 84 106H49c0 40 14 67 53 68 26 1 43-12 49-29l28 8c-11 28-37 45-77 45C44 4 14-33 15-96c1-61 26-98 85-98zm52 81c6-60-76-77-97-28-3 7-6 17-6 28h103" id="U"/><path d="M108 0H70L1-190h34L89-25l56-165h34" id="V"/><path d="M141-36C126-15 110 5 73 4 37 3 15-17 15-53c-1-64 63-63 125-63 3-35-9-54-41-54-24 1-41 7-42 31l-33-3c5-37 33-52 76-52 45 0 72 20 72 64v82c-1 20 7 32 28 27v20c-31 9-61-2-59-35zM48-53c0 20 12 33 32 33 41-3 63-29 60-74-43 2-92-5-92 41" id="W"/><path d="M85-194c31 0 48 13 60 33l-1-100h32l1 261h-30c-2-10 0-23-3-31C134-8 116 4 85 4 32 4 16-35 15-94c0-66 23-100 70-100zm9 24c-40 0-46 34-46 75 0 40 6 74 45 74 42 0 51-32 51-76 0-42-9-74-50-73" id="X"/><path d="M100-194c62-1 85 37 85 99 1 63-27 99-86 99S16-35 15-95c0-66 28-99 85-99zM99-20c44 1 53-31 53-75 0-43-8-75-51-75s-53 32-53 75 10 74 51 75" id="Y"/><path d="M114-163C36-179 61-72 57 0H25l-1-190h30c1 12-1 29 2 39 6-27 23-49 58-41v29" id="Z"/><g id="a"><use transform="matrix(0.05,0,0,0.05,0,0)" xlink:href="#S"/><use transform="matrix(0.05,0,0,0.05,12,0)" xlink:href="#T"/><use transform="matrix(0.05,0,0,0.05,15.949999999999998,0)" xlink:href="#U"/><use transform="matrix(0.05,0,0,0.05,25.950000000000003,0)" xlink:href="#V"/><use transform="matrix(0.05,0,0,0.05,34.95,0)" xlink:href="#W"/><use transform="matrix(0.05,0,0,0.05,44.95,0)" xlink:href="#X"/><use transform="matrix(0.05,0,0,0.05,54.95,0)" xlink:href="#Y"/><use transform="matrix(0.05,0,0,0.05,64.95,0)" xlink:href="#Z"/></g><path d="M177-190C167-65 218 103 67 71c-23-6-38-20-44-43l32-5c15 47 100 32 89-28v-30C133-14 115 1 83 1 29 1 15-40 15-95c0-56 16-97 71-98 29-1 48 16 59 35 1-10 0-23 2-32h30zM94-22c36 0 50-32 50-73 0-42-14-75-50-75-39 0-46 34-46 75s6 73 46 73" id="aa"/><path d="M117-194c89-4 53 116 60 194h-32v-121c0-31-8-49-39-48C34-167 62-67 57 0H25l-1-190h30c1 10-1 24 2 32 11-22 29-35 61-36" id="ab"/><path d="M96-169c-40 0-48 33-48 73s9 75 48 75c24 0 41-14 43-38l32 2c-6 37-31 61-74 61-59 0-76-41-82-99-10-93 101-131 147-64 4 7 5 14 7 22l-32 3c-4-21-16-35-41-35" id="ac"/><path d="M24-231v-30h32v30H24zM24 0v-190h32V0H24" id="ad"/><g id="b"><use transform="matrix(0.05,0,0,0.05,0,0)" xlink:href="#aa"/><use transform="matrix(0.05,0,0,0.05,10,0)" xlink:href="#U"/><use transform="matrix(0.05,0,0,0.05,20,0)" xlink:href="#Z"/><use transform="matrix(0.05,0,0,0.05,25.950000000000003,0)" xlink:href="#U"/><use transform="matrix(0.05,0,0,0.05,35.95,0)" xlink:href="#ab"/><use transform="matrix(0.05,0,0,0.05,45.95,0)" xlink:href="#ac"/><use transform="matrix(0.05,0,0,0.05,54.95,0)" xlink:href="#ad"/><use transform="matrix(0.05,0,0,0.05,58.900000000000006,0)" xlink:href="#W"/><use transform="matrix(0.05,0,0,0.05,68.9,0)" xlink:href="#Z"/></g><path d="M84 4C-5 8 30-112 23-190h32v120c0 31 7 50 39 49 72-2 45-101 50-169h31l1 190h-30c-1-10 1-25-2-33-11 22-28 36-60 37" id="ae"/><path d="M135-143c-3-34-86-38-87 0 15 53 115 12 119 90S17 21 10-45l28-5c4 36 97 45 98 0-10-56-113-15-118-90-4-57 82-63 122-42 12 7 21 19 24 35" id="af"/><g id="c"><use transform="matrix(0.05,0,0,0.05,0,0)" xlink:href="#ae"/><use transform="matrix(0.05,0,0,0.05,10,0)" xlink:href="#af"/><use transform="matrix(0.05,0,0,0.05,19,0)" xlink:href="#ae"/><use transform="matrix(0.05,0,0,0.05,29,0)" xlink:href="#W"/><use transform="matrix(0.05,0,0,0.05,39,0)" xlink:href="#Z"/><use transform="matrix(0.05,0,0,0.05,44.95,0)" xlink:href="#ad"/><use transform="matrix(0.05,0,0,0.05,48.900000000000006,0)" xlink:href="#Y"/></g><path d="M210-169c-67 3-38 105-44 169h-31v-121c0-29-5-50-35-48C34-165 62-65 56 0H25l-1-190h30c1 10-1 24 2 32 10-44 99-50 107 0 11-21 27-35 58-36 85-2 47 119 55 194h-31v-121c0-29-5-49-35-48" id="ag"/><path d="M59-47c-2 24 18 29 38 22v24C64 9 27 4 27-40v-127H5v-23h24l9-43h21v43h35v23H59v120" id="ah"/><g id="d"><use transform="matrix(0.05,0,0,0.05,0,0)" xlink:href="#U"/><use transform="matrix(0.05,0,0,0.05,10,0)" xlink:href="#ag"/><use transform="matrix(0.05,0,0,0.05,24.950000000000003,0)" xlink:href="#ad"/><use transform="matrix(0.05,0,0,0.05,28.900000000000002,0)" xlink:href="#ah"/><use transform="matrix(0.05,0,0,0.05,33.900000000000006,0)" xlink:href="#ad"/><use transform="matrix(0.05,0,0,0.05,37.85000000000001,0)" xlink:href="#Z"/></g><path d="M141-36C126-15 110 5 73 4 37 3 15-17 15-53c-1-64 63-63 125-63 3-35-9-54-41-54-24 1-41 7-42 31l-33-3c5-37 33-52 76-52 45 0 72 20 72 64v82c-1 20 7 32 28 27v20c-31 9-61-2-59-35zM48-53c0 20 12 33 32 33 41-3 63-29 60-74-43 2-92-5-92 41zm117-205c-3 23-9 48-36 47-26-1-65-44-74 0H39c4-23 8-48 36-47s64 44 74 0h16" id="ai"/><g id="e"><use transform="matrix(0.05,0,0,0.05,0,0)" xlink:href="#ac"/><use transform="matrix(0.05,0,0,0.05,9,0)" xlink:href="#W"/><use transform="matrix(0.05,0,0,0.05,19,0)" xlink:href="#Z"/><use transform="matrix(0.05,0,0,0.05,24.95,0)" xlink:href="#ah"/><use transform="matrix(0.05,0,0,0.05,29.950000000000003,0)" xlink:href="#ai"/><use transform="matrix(0.05,0,0,0.05,39.95,0)" xlink:href="#Y"/></g><path d="M106-169C34-169 62-67 57 0H25v-261h32l-1 103c12-21 28-36 61-36 89 0 53 116 60 194h-32v-121c2-32-8-49-39-48" id="aj"/><g id="f"><use transform="matrix(0.05,0,0,0.05,0,0)" xlink:href="#ac"/><use transform="matrix(0.05,0,0,0.05,9,0)" xlink:href="#aj"/><use transform="matrix(0.05,0,0,0.05,19,0)" xlink:href="#W"/><use transform="matrix(0.05,0,0,0.05,29,0)" xlink:href="#ag"/><use transform="matrix(0.05,0,0,0.05,43.95,0)" xlink:href="#W"/><use transform="matrix(0.05,0,0,0.05,53.95,0)" xlink:href="#Z"/></g><g id="g"><use transform="matrix(0.05,0,0,0.05,0,0)" xlink:href="#U"/><use transform="matrix(0.05,0,0,0.05,10,0)" xlink:href="#T"/><use transform="matrix(0.05,0,0,0.05,13.949999999999998,0)" xlink:href="#U"/><use transform="matrix(0.05,0,0,0.05,23.95,0)" xlink:href="#V"/><use transform="matrix(0.05,0,0,0.05,32.95,0)" xlink:href="#W"/><use transform="matrix(0.05,0,0,0.05,42.95,0)" xlink:href="#X"/><use transform="matrix(0.05,0,0,0.05,52.95,0)" xlink:href="#Y"/><use transform="matrix(0.05,0,0,0.05,62.95,0)" xlink:href="#Z"/></g><g id="h"><use transform="matrix(0.05,0,0,0.05,0,0)" xlink:href="#ac"/><use transform="matrix(0.05,0,0,0.05,9,0)" xlink:href="#Y"/><use transform="matrix(0.05,0,0,0.05,19,0)" xlink:href="#ab"/><use transform="matrix(0.05,0,0,0.05,29,0)" xlink:href="#af"/><use transform="matrix(0.05,0,0,0.05,38,0)" xlink:href="#ae"/><use transform="matrix(0.05,0,0,0.05,48,0)" xlink:href="#T"/><use transform="matrix(0.05,0,0,0.05,51.95,0)" xlink:href="#ah"/><use transform="matrix(0.05,0,0,0.05,56.95,0)" xlink:href="#W"/><use transform="matrix(0.05,0,0,0.05,66.95,0)" xlink:href="#Z"/></g><g id="i"><use transform="matrix(0.05,0,0,0.05,0,0)" xlink:href="#ae"/><use transform="matrix(0.05,0,0,0.05,10,0)" xlink:href="#T"/><use transform="matrix(0.05,0,0,0.05,13.949999999999998,0)" xlink:href="#ah"/><use transform="matrix(0.05,0,0,0.05,18.95,0)" xlink:href="#ad"/><use transform="matrix(0.05,0,0,0.05,22.9,0)" xlink:href="#ag"/><use transform="matrix(0.05,0,0,0.05,37.85,0)" xlink:href="#Y"/></g><g id="j"><use transform="matrix(0.05,0,0,0.05,0,0)" xlink:href="#W"/><use transform="matrix(0.05,0,0,0.05,10,0)" xlink:href="#ab"/><use transform="matrix(0.05,0,0,0.05,20,0)" xlink:href="#X"/><use transform="matrix(0.05,0,0,0.05,30,0)" xlink:href="#W"/><use transform="matrix(0.05,0,0,0.05,40,0)" xlink:href="#Z"/></g><path d="M101-234c-31-9-42 10-38 44h38v23H63V0H32v-167H5v-23h27c-7-52 17-82 69-68v24" id="ak"/><g id="k"><use transform="matrix(0.05,0,0,0.05,0,0)" xlink:href="#ac"/><use transform="matrix(0.05,0,0,0.05,9,0)" xlink:href="#Y"/><use transform="matrix(0.05,0,0,0.05,19,0)" xlink:href="#ab"/><use transform="matrix(0.05,0,0,0.05,29,0)" xlink:href="#ak"/><use transform="matrix(0.05,0,0,0.05,34,0)" xlink:href="#ad"/><use transform="matrix(0.05,0,0,0.05,37.95,0)" xlink:href="#aa"/><use transform="matrix(0.05,0,0,0.05,47.95,0)" xlink:href="#ae"/><use transform="matrix(0.05,0,0,0.05,57.95,0)" xlink:href="#Z"/><use transform="matrix(0.05,0,0,0.05,63.900000000000006,0)" xlink:href="#W"/><use transform="matrix(0.05,0,0,0.05,73.9,0)" xlink:href="#Z"/></g><path d="M24-231v-30h32v30H24zM-9 49c24 4 33-6 33-30v-209h32V24c2 40-23 58-65 49V49" id="al"/><g id="l"><use transform="matrix(0.05,0,0,0.05,0,0)" xlink:href="#ac"/><use transform="matrix(0.05,0,0,0.05,9,0)" xlink:href="#Y"/><use transform="matrix(0.05,0,0,0.05,19,0)" xlink:href="#ab"/><use transform="matrix(0.05,0,0,0.05,29,0)" xlink:href="#al"/><use transform="matrix(0.05,0,0,0.05,32.95,0)" xlink:href="#ae"/><use transform="matrix(0.05,0,0,0.05,42.95,0)" xlink:href="#ab"/><use transform="matrix(0.05,0,0,0.05,52.95,0)" xlink:href="#ah"/><use transform="matrix(0.05,0,0,0.05,57.95,0)" xlink:href="#Y"/></g><g id="m"><use transform="matrix(0.05,0,0,0.05,0,0)" xlink:href="#X"/><use transform="matrix(0.05,0,0,0.05,10,0)" xlink:href="#U"/></g><g id="n"><use transform="matrix(0.05,0,0,0.05,0,0)" xlink:href="#U"/><use transform="matrix(0.05,0,0,0.05,10,0)" xlink:href="#T"/><use transform="matrix(0.05,0,0,0.05,13.949999999999998,0)" xlink:href="#U"/><use transform="matrix(0.05,0,0,0.05,23.95,0)" xlink:href="#V"/><use transform="matrix(0.05,0,0,0.05,32.95,0)" xlink:href="#W"/><use transform="matrix(0.05,0,0,0.05,42.95,0)" xlink:href="#X"/><use transform="matrix(0.05,0,0,0.05,52.95,0)" xlink:href="#Y"/><use transform="matrix(0.05,0,0,0.05,62.95,0)" xlink:href="#Z"/><use transform="matrix(0.05,0,0,0.05,68.9,0)" xlink:href="#U"/><use transform="matrix(0.05,0,0,0.05,78.9,0)" xlink:href="#af"/></g><g id="o"><use transform="matrix(0.05,0,0,0.05,0,0)" xlink:href="#V"/><use transform="matrix(0.05,0,0,0.05,9,0)" xlink:href="#ad"/><use transform="matrix(0.05,0,0,0.05,12.949999999999998,0)" xlink:href="#W"/><use transform="matrix(0.05,0,0,0.05,22.95,0)" xlink:href="#aa"/><use transform="matrix(0.05,0,0,0.05,32.95,0)" xlink:href="#U"/><use transform="matrix(0.05,0,0,0.05,42.95,0)" xlink:href="#ab"/><use transform="matrix(0.05,0,0,0.05,52.95,0)" xlink:href="#af"/></g><path d="M185-189c-5-48-123-54-124 2 14 75 158 14 163 119 3 78-121 87-175 55-17-10-28-26-33-46l33-7c5 56 141 63 141-1 0-78-155-14-162-118-5-82 145-84 179-34 5 7 8 16 11 25" id="am"/><g id="p"><use transform="matrix(0.05,0,0,0.05,0,0)" xlink:href="#am"/><use transform="matrix(0.05,0,0,0.05,12,0)" xlink:href="#ad"/><use transform="matrix(0.05,0,0,0.05,15.949999999999998,0)" xlink:href="#ag"/></g><g id="q"><use transform="matrix(0.05,0,0,0.05,0,0)" xlink:href="#X"/><use transform="matrix(0.05,0,0,0.05,10,0)" xlink:href="#U"/></g><g id="r"><use transform="matrix(0.05,0,0,0.05,0,0)" xlink:href="#X"/><use transform="matrix(0.05,0,0,0.05,10,0)" xlink:href="#U"/><use transform="matrix(0.05,0,0,0.05,20,0)" xlink:href="#af"/><use transform="matrix(0.05,0,0,0.05,29,0)" xlink:href="#W"/><use transform="matrix(0.05,0,0,0.05,39,0)" xlink:href="#ah"/><use transform="matrix(0.05,0,0,0.05,44,0)" xlink:href="#ad"/><use transform="matrix(0.05,0,0,0.05,47.95,0)" xlink:href="#V"/><use transform="matrix(0.05,0,0,0.05,56.95,0)" xlink:href="#W"/><use transform="matrix(0.05,0,0,0.05,66.95,0)" xlink:href="#Z"/></g><g id="s"><use transform="matrix(0.05,0,0,0.05,0,0)" xlink:href="#ad"/><use transform="matrix(0.05,0,0,0.05,3.95,0)" xlink:href="#ab"/><use transform="matrix(0.05,0,0,0.05,13.949999999999998,0)" xlink:href="#ac"/><use transform="matrix(0.05,0,0,0.05,22.95,0)" xlink:href="#T"/><use transform="matrix(0.05,0,0,0.05,26.899999999999995,0)" xlink:href="#ae"/><use transform="matrix(0.05,0,0,0.05,36.9,0)" xlink:href="#af"/><use transform="matrix(0.05,0,0,0.05,45.9,0)" xlink:href="#ai"/><use transform="matrix(0.05,0,0,0.05,55.900000000000006,0)" xlink:href="#Y"/></g><g id="t"><use transform="matrix(0.05,0,0,0.05,0,0)" xlink:href="#af"/><use transform="matrix(0.05,0,0,0.05,9,0)" xlink:href="#ad"/><use transform="matrix(0.05,0,0,0.05,12.949999999999998,0)" xlink:href="#af"/><use transform="matrix(0.05,0,0,0.05,21.95,0)" xlink:href="#ah"/><use transform="matrix(0.05,0,0,0.05,26.950000000000003,0)" xlink:href="#U"/><use transform="matrix(0.05,0,0,0.05,36.95,0)" xlink:href="#ag"/><use transform="matrix(0.05,0,0,0.05,51.900000000000006,0)" xlink:href="#W"/></g><path d="M145-31C134-9 116 4 85 4 32 4 16-35 15-94c0-59 17-99 70-100 32-1 48 14 60 33 0-11-1-24 2-32h30l-1 268h-32zM93-21c41 0 51-33 51-76s-8-73-50-73c-40 0-46 35-46 75s5 74 45 74" id="an"/><g id="u"><use transform="matrix(0.05,0,0,0.05,0,0)" xlink:href="#an"/><use transform="matrix(0.05,0,0,0.05,10,0)" xlink:href="#ae"/><use transform="matrix(0.05,0,0,0.05,20,0)" xlink:href="#W"/><use transform="matrix(0.05,0,0,0.05,30,0)" xlink:href="#ab"/><use transform="matrix(0.05,0,0,0.05,40,0)" xlink:href="#ah"/><use transform="matrix(0.05,0,0,0.05,45,0)" xlink:href="#ad"/><use transform="matrix(0.05,0,0,0.05,48.95,0)" xlink:href="#X"/><use transform="matrix(0.05,0,0,0.05,58.95,0)" xlink:href="#W"/><use transform="matrix(0.05,0,0,0.05,68.95,0)" xlink:href="#X"/><use transform="matrix(0.05,0,0,0.05,78.95,0)" xlink:href="#U"/></g><g id="v"><use transform="matrix(0.05,0,0,0.05,0,0)" xlink:href="#ad"/><use transform="matrix(0.05,0,0,0.05,3.95,0)" xlink:href="#ab"/><use transform="matrix(0.05,0,0,0.05,13.949999999999998,0)" xlink:href="#ac"/><use transform="matrix(0.05,0,0,0.05,22.95,0)" xlink:href="#T"/><use transform="matrix(0.05,0,0,0.05,26.899999999999995,0)" xlink:href="#ae"/><use transform="matrix(0.05,0,0,0.05,36.9,0)" xlink:href="#af"/><use transform="matrix(0.05,0,0,0.05,45.9,0)" xlink:href="#ai"/><use transform="matrix(0.05,0,0,0.05,55.900000000000006,0)" xlink:href="#Y"/></g><path d="M96-169c-40 0-48 33-48 73s9 75 48 75c24 0 41-14 43-38l32 2c-6 37-31 61-74 61-59 0-76-41-82-99-10-93 101-131 147-64 4 7 5 14 7 22l-32 3c-4-21-16-35-41-35zm3 187c19-1 33 8 33 26 0 31-30 33-64 32V58c18 2 39 4 41-13 1-15-18-13-34-13L87 0h19" id="ao"/><path d="M115-194c55 1 70 41 70 98S169 2 115 4C84 4 66-9 55-30l1 105H24l-1-265h31l2 30c10-21 28-34 59-34zm-8 174c40 0 45-34 45-75s-6-73-45-74c-42 0-51 32-51 76 0 43 10 73 51 73" id="ap"/><g id="w"><use transform="matrix(0.05,0,0,0.05,0,0)" xlink:href="#W"/><use transform="matrix(0.05,0,0,0.05,10,0)" xlink:href="#T"/><use transform="matrix(0.05,0,0,0.05,13.949999999999998,0)" xlink:href="#ah"/><use transform="matrix(0.05,0,0,0.05,18.95,0)" xlink:href="#U"/><use transform="matrix(0.05,0,0,0.05,28.950000000000003,0)" xlink:href="#Z"/><use transform="matrix(0.05,0,0,0.05,34.9,0)" xlink:href="#W"/><use transform="matrix(0.05,0,0,0.05,44.9,0)" xlink:href="#ao"/><use transform="matrix(0.05,0,0,0.05,53.900000000000006,0)" xlink:href="#ai"/><use transform="matrix(0.05,0,0,0.05,63.900000000000006,0)" xlink:href="#ap"/></g><path d="M141 0L90-78 38 0H4l68-98-65-92h35l48 74 47-74h35l-64 92 68 98h-35" id="aq"/><g id="x"><use transform="matrix(0.05,0,0,0.05,0,0)" xlink:href="#U"/><use transform="matrix(0.05,0,0,0.05,10,0)" xlink:href="#aq"/><use transform="matrix(0.05,0,0,0.05,19,0)" xlink:href="#ac"/><use transform="matrix(0.05,0,0,0.05,28,0)" xlink:href="#T"/><use transform="matrix(0.05,0,0,0.05,31.950000000000003,0)" xlink:href="#ae"/><use transform="matrix(0.05,0,0,0.05,41.95,0)" xlink:href="#af"/><use transform="matrix(0.05,0,0,0.05,50.95,0)" xlink:href="#ai"/><use transform="matrix(0.05,0,0,0.05,60.95,0)" xlink:href="#Y"/></g><g id="y"><use transform="matrix(0.05,0,0,0.05,0,0)" xlink:href="#ac"/><use transform="matrix(0.05,0,0,0.05,9,0)" xlink:href="#W"/><use transform="matrix(0.05,0,0,0.05,19,0)" xlink:href="#Z"/><use transform="matrix(0.05,0,0,0.05,24.95,0)" xlink:href="#ah"/><use transform="matrix(0.05,0,0,0.05,29.950000000000003,0)" xlink:href="#Y"/><use transform="matrix(0.05,0,0,0.05,39.95,0)" xlink:href="#U"/><use transform="matrix(0.05,0,0,0.05,49.95,0)" xlink:href="#af"/></g><g id="z"><use transform="matrix(0.05,0,0,0.05,0,0)" xlink:href="#X"/><use transform="matrix(0.05,0,0,0.05,10,0)" xlink:href="#Y"/><use transform="matrix(0.05,0,0,0.05,20,0)" xlink:href="#af"/></g><g id="A"><use transform="matrix(0.05,0,0,0.05,0,0)" xlink:href="#ae"/><use transform="matrix(0.05,0,0,0.05,10,0)" xlink:href="#af"/><use transform="matrix(0.05,0,0,0.05,19,0)" xlink:href="#ae"/><use transform="matrix(0.05,0,0,0.05,29,0)" xlink:href="#W"/><use transform="matrix(0.05,0,0,0.05,39,0)" xlink:href="#Z"/><use transform="matrix(0.05,0,0,0.05,44.95,0)" xlink:href="#ad"/><use transform="matrix(0.05,0,0,0.05,48.900000000000006,0)" xlink:href="#Y"/><use transform="matrix(0.05,0,0,0.05,58.900000000000006,0)" xlink:href="#af"/></g><g id="B"><use transform="matrix(0.05,0,0,0.05,0,0)" xlink:href="#ap"/><use transform="matrix(0.05,0,0,0.05,10,0)" xlink:href="#W"/><use transform="matrix(0.05,0,0,0.05,20,0)" xlink:href="#ad"/><use transform="matrix(0.05,0,0,0.05,23.95,0)" xlink:href="#ab"/><use transform="matrix(0.05,0,0,0.05,33.95,0)" xlink:href="#U"/><use transform="matrix(0.05,0,0,0.05,43.95,0)" xlink:href="#T"/></g><g id="C"><use transform="matrix(0.05,0,0,0.05,0,0)" xlink:href="#W"/><use transform="matrix(0.05,0,0,0.05,10,0)" xlink:href="#ac"/><use transform="matrix(0.05,0,0,0.05,19,0)" xlink:href="#U"/><use transform="matrix(0.05,0,0,0.05,29,0)" xlink:href="#af"/><use transform="matrix(0.05,0,0,0.05,38,0)" xlink:href="#af"/><use transform="matrix(0.05,0,0,0.05,47,0)" xlink:href="#Y"/></g><g id="D"><use transform="matrix(0.05,0,0,0.05,0,0)" xlink:href="#ad"/><use transform="matrix(0.05,0,0,0.05,3.95,0)" xlink:href="#ab"/><use transform="matrix(0.05,0,0,0.05,13.949999999999998,0)" xlink:href="#af"/><use transform="matrix(0.05,0,0,0.05,22.95,0)" xlink:href="#U"/><use transform="matrix(0.05,0,0,0.05,32.95,0)" xlink:href="#Z"/><use transform="matrix(0.05,0,0,0.05,38.900000000000006,0)" xlink:href="#U"/><use transform="matrix(0.05,0,0,0.05,48.900000000000006,0)" xlink:href="#Z"/></g><g id="E"><use transform="matrix(0.05,0,0,0.05,0,0)" xlink:href="#ac"/><use transform="matrix(0.05,0,0,0.05,9,0)" xlink:href="#W"/><use transform="matrix(0.05,0,0,0.05,19,0)" xlink:href="#Z"/><use transform="matrix(0.05,0,0,0.05,24.95,0)" xlink:href="#ah"/><use transform="matrix(0.05,0,0,0.05,29.950000000000003,0)" xlink:href="#ai"/><use transform="matrix(0.05,0,0,0.05,39.95,0)" xlink:href="#Y"/></g><g id="F"><use transform="matrix(0.05,0,0,0.05,0,0)" xlink:href="#W"/><use transform="matrix(0.05,0,0,0.05,10,0)" xlink:href="#ab"/><use transform="matrix(0.05,0,0,0.05,20,0)" xlink:href="#X"/><use transform="matrix(0.05,0,0,0.05,30,0)" xlink:href="#W"/><use transform="matrix(0.05,0,0,0.05,40,0)" xlink:href="#Z"/></g><g id="G"><use transform="matrix(0.05,0,0,0.05,0,0)" xlink:href="#X"/><use transform="matrix(0.05,0,0,0.05,10,0)" xlink:href="#W"/><use transform="matrix(0.05,0,0,0.05,20,0)" xlink:href="#ah"/><use transform="matrix(0.05,0,0,0.05,25,0)" xlink:href="#W"/></g><g id="H"><use transform="matrix(0.05,0,0,0.05,0,0)" xlink:href="#aj"/><use transform="matrix(0.05,0,0,0.05,10,0)" xlink:href="#Y"/><use transform="matrix(0.05,0,0,0.05,20,0)" xlink:href="#Z"/><use transform="matrix(0.05,0,0,0.05,25.950000000000003,0)" xlink:href="#W"/></g><g id="I"><use transform="matrix(0.05,0,0,0.05,0,0)" xlink:href="#ac"/><use transform="matrix(0.05,0,0,0.05,9,0)" xlink:href="#U"/><use transform="matrix(0.05,0,0,0.05,19,0)" xlink:href="#T"/><use transform="matrix(0.05,0,0,0.05,22.95,0)" xlink:href="#ae"/><use transform="matrix(0.05,0,0,0.05,32.95,0)" xlink:href="#T"/><use transform="matrix(0.05,0,0,0.05,36.900000000000006,0)" xlink:href="#W"/><use transform="matrix(0.05,0,0,0.05,46.900000000000006,0)" xlink:href="#Z"/></g><g id="J"><use transform="matrix(0.05,0,0,0.05,0,0)" xlink:href="#ac"/><use transform="matrix(0.05,0,0,0.05,9,0)" xlink:href="#Y"/><use transform="matrix(0.05,0,0,0.05,19,0)" xlink:href="#ab"/><use transform="matrix(0.05,0,0,0.05,29,0)" xlink:href="#ah"/><use transform="matrix(0.05,0,0,0.05,34,0)" xlink:href="#W"/><use transform="matrix(0.05,0,0,0.05,44,0)" xlink:href="#ah"/><use transform="matrix(0.05,0,0,0.05,49,0)" xlink:href="#Y"/></g><g id="K"><use transform="matrix(0.05,0,0,0.05,0,0)" xlink:href="#an"/><use transform="matrix(0.05,0,0,0.05,10,0)" xlink:href="#ae"/><use transform="matrix(0.05,0,0,0.05,20,0)" xlink:href="#W"/><use transform="matrix(0.05,0,0,0.05,30,0)" xlink:href="#ab"/><use transform="matrix(0.05,0,0,0.05,40,0)" xlink:href="#ah"/><use transform="matrix(0.05,0,0,0.05,45,0)" xlink:href="#ad"/><use transform="matrix(0.05,0,0,0.05,48.95,0)" xlink:href="#X"/><use transform="matrix(0.05,0,0,0.05,58.95,0)" xlink:href="#W"/><use transform="matrix(0.05,0,0,0.05,68.95,0)" xlink:href="#X"/><use transform="matrix(0.05,0,0,0.05,78.95,0)" xlink:href="#U"/><use transform="matrix(0.05,0,0,0.05,88.95,0)" xlink:href="#af"/></g><g id="L"><use transform="matrix(0.05,0,0,0.05,0,0)" xlink:href="#V"/><use transform="matrix(0.05,0,0,0.05,9,0)" xlink:href="#ad"/><use transform="matrix(0.05,0,0,0.05,12.949999999999998,0)" xlink:href="#W"/><use transform="matrix(0.05,0,0,0.05,22.95,0)" xlink:href="#aa"/><use transform="matrix(0.05,0,0,0.05,32.95,0)" xlink:href="#U"/><use transform="matrix(0.05,0,0,0.05,42.95,0)" xlink:href="#ab"/><use transform="matrix(0.05,0,0,0.05,52.95,0)" xlink:href="#af"/></g><g id="M"><use transform="matrix(0.05,0,0,0.05,0,0)" xlink:href="#V"/><use transform="matrix(0.05,0,0,0.05,9,0)" xlink:href="#ad"/><use transform="matrix(0.05,0,0,0.05,12.949999999999998,0)" xlink:href="#W"/><use transform="matrix(0.05,0,0,0.05,22.95,0)" xlink:href="#aa"/><use transform="matrix(0.05,0,0,0.05,32.95,0)" xlink:href="#U"/><use transform="matrix(0.05,0,0,0.05,42.95,0)" xlink:href="#ab"/><use transform="matrix(0.05,0,0,0.05,52.95,0)" xlink:href="#af"/></g><path d="M9 0v-24l116-142H16v-24h144v24L44-24h123V0H9" id="ar"/><g id="N"><use transform="matrix(0.05,0,0,0.05,0,0)" xlink:href="#Z"/><use transform="matrix(0.05,0,0,0.05,5.95,0)" xlink:href="#U"/><use transform="matrix(0.05,0,0,0.05,15.949999999999998,0)" xlink:href="#W"/><use transform="matrix(0.05,0,0,0.05,25.950000000000003,0)" xlink:href="#T"/><use transform="matrix(0.05,0,0,0.05,29.899999999999995,0)" xlink:href="#ad"/><use transform="matrix(0.05,0,0,0.05,33.85,0)" xlink:href="#ar"/><use transform="matrix(0.05,0,0,0.05,42.85,0)" xlink:href="#W"/><use transform="matrix(0.05,0,0,0.05,52.85,0)" xlink:href="#X"/><use transform="matrix(0.05,0,0,0.05,62.85,0)" xlink:href="#W"/><use transform="matrix(0.05,0,0,0.05,72.85,0)" xlink:href="#af"/></g><g id="O"><use transform="matrix(0.05,0,0,0.05,0,0)" xlink:href="#U"/><use transform="matrix(0.05,0,0,0.05,10,0)" xlink:href="#T"/><use transform="matrix(0.05,0,0,0.05,13.949999999999998,0)" xlink:href="#U"/><use transform="matrix(0.05,0,0,0.05,23.95,0)" xlink:href="#V"/><use transform="matrix(0.05,0,0,0.05,32.95,0)" xlink:href="#W"/><use transform="matrix(0.05,0,0,0.05,42.95,0)" xlink:href="#X"/><use transform="matrix(0.05,0,0,0.05,52.95,0)" xlink:href="#Y"/><use transform="matrix(0.05,0,0,0.05,62.95,0)" xlink:href="#Z"/></g><g id="P"><use transform="matrix(0.05,0,0,0.05,0,0)" xlink:href="#W"/><use transform="matrix(0.05,0,0,0.05,10,0)" xlink:href="#ah"/><use transform="matrix(0.05,0,0,0.05,15,0)" xlink:href="#ad"/><use transform="matrix(0.05,0,0,0.05,18.95,0)" xlink:href="#V"/><use transform="matrix(0.05,0,0,0.05,27.950000000000003,0)" xlink:href="#Y"/></g><g id="Q"><use transform="matrix(0.05,0,0,0.05,0,0)" xlink:href="#U"/><use transform="matrix(0.05,0,0,0.05,10,0)" xlink:href="#T"/><use transform="matrix(0.05,0,0,0.05,13.949999999999998,0)" xlink:href="#U"/><use transform="matrix(0.05,0,0,0.05,23.95,0)" xlink:href="#V"/><use transform="matrix(0.05,0,0,0.05,32.95,0)" xlink:href="#W"/><use transform="matrix(0.05,0,0,0.05,42.95,0)" xlink:href="#X"/><use transform="matrix(0.05,0,0,0.05,52.95,0)" xlink:href="#Y"/><use transform="matrix(0.05,0,0,0.05,62.95,0)" xlink:href="#Z"/></g><g id="R"><use transform="matrix(0.05,0,0,0.05,0,0)" xlink:href="#ad"/><use transform="matrix(0.05,0,0,0.05,3.95,0)" xlink:href="#ab"/><use transform="matrix(0.05,0,0,0.05,13.949999999999998,0)" xlink:href="#W"/><use transform="matrix(0.05,0,0,0.05,23.95,0)" xlink:href="#ah"/><use transform="matrix(0.05,0,0,0.05,28.950000000000003,0)" xlink:href="#ad"/><use transform="matrix(0.05,0,0,0.05,32.9,0)" xlink:href="#V"/><use transform="matrix(0.05,0,0,0.05,41.9,0)" xlink:href="#Y"/></g></defs></g></svg>